<?xml version="1.0" standalone="no"?>
<!DOCTYPE svg PUBLIC "-//W3C//DTD SVG 20010904//EN"
 "http://www.w3.org/TR/2001/REC-SVG-20010904/DTD/svg10.dtd">
<svg version="1.0" xmlns="http://www.w3.org/2000/svg"
 width="2107.000000pt" height="2107.000000pt" viewBox="0 0 2107.000000 2107.000000"
 preserveAspectRatio="xMidYMid meet">
<metadata>
Created by potrace 1.11, written by Peter Selinger 2001-2013
</metadata>
<g transform="translate(0.000000,2107.000000) scale(0.100000,-0.100000)"
fill="#000000" stroke="none">
<path d="M9021 18468 c-19 -5 -49 -21 -67 -34 -53 -41 -66 -82 -69 -218 -4
-144 -13 -374 -20 -471 -2 -38 -7 -110 -10 -160 -11 -160 -24 -346 -30 -400
-2 -22 -7 -80 -10 -130 -4 -49 -9 -103 -11 -120 -2 -16 -6 -64 -9 -105 -3 -41
-10 -115 -15 -165 -5 -49 -12 -121 -16 -160 -3 -38 -7 -81 -9 -95 -2 -14 -7
-54 -10 -90 -6 -62 -10 -102 -20 -180 -3 -19 -7 -57 -10 -85 -3 -27 -7 -70
-10 -95 -4 -25 -8 -58 -10 -75 -10 -80 -17 -138 -30 -225 -8 -52 -17 -115 -20
-140 -3 -25 -15 -88 -26 -140 -18 -87 -27 -136 -33 -167 -5 -27 -15 -21 -57
34 -24 32 -46 60 -49 63 -3 3 -30 34 -60 70 -169 201 -409 428 -645 609 -22
17 -44 34 -50 39 -100 78 -568 382 -590 382 -2 0 -31 16 -66 35 -147 84 -579
291 -579 279 0 -18 71 -153 118 -224 104 -158 225 -287 481 -510 100 -87 94
-82 207 -192 54 -53 110 -109 123 -125 14 -15 46 -53 72 -83 83 -98 183 -250
259 -396 47 -92 55 -110 38 -97 -7 5 -36 19 -63 31 -28 11 -106 47 -175 80
-235 112 -275 130 -385 177 -195 83 -402 152 -515 169 -19 3 -48 8 -65 12
-100 19 -387 26 -465 11 -14 -3 -47 -8 -73 -12 -27 -4 -59 -8 -70 -11 -12 -2
-35 -7 -52 -9 -16 -3 -37 -8 -45 -10 -8 -2 -30 -7 -49 -10 -19 -3 -37 -8 -41
-10 -4 -2 -20 -7 -37 -10 -52 -9 -263 -72 -389 -116 -241 -85 -601 -245 -829
-368 -579 -315 -1030 -620 -1395 -946 -25 -22 -117 -112 -205 -200 -148 -148
-196 -200 -301 -326 -365 -437 -648 -938 -834 -1474 -33 -95 -78 -238 -85
-270 -1 -5 -7 -30 -14 -55 -7 -25 -14 -52 -16 -60 -2 -8 -10 -46 -19 -85 -21
-87 -44 -198 -52 -249 -3 -21 -7 -48 -10 -60 -6 -32 -32 -234 -39 -301 -25
-259 -25 -696 -1 -930 3 -22 7 -67 10 -100 3 -33 8 -71 10 -85 3 -14 8 -50 12
-80 16 -128 31 -210 75 -410 47 -207 153 -560 208 -685 4 -11 30 -72 56 -135
126 -302 293 -611 469 -869 39 -57 79 -115 88 -130 9 -14 20 -31 25 -36 4 -6
37 -48 73 -95 264 -348 609 -699 961 -980 59 -48 63 -51 204 -156 234 -175
569 -380 875 -535 175 -89 284 -140 496 -232 482 -209 1045 -403 1454 -501
120 -29 432 -91 503 -101 27 -4 56 -8 65 -10 10 -1 46 -6 82 -10 36 -4 72 -8
80 -10 89 -17 400 -22 635 -11 83 4 195 9 250 11 175 7 387 15 495 20 58 2
161 7 230 10 281 12 467 22 575 30 33 3 101 7 150 10 50 3 113 7 140 9 28 3
88 7 135 11 47 3 101 8 120 10 19 2 64 7 100 10 36 4 79 8 95 10 17 2 59 6 95
10 36 3 76 8 90 10 14 2 48 6 75 10 28 3 64 7 80 9 17 3 53 7 80 11 28 3 59 8
71 10 12 3 52 9 90 15 38 5 80 12 94 14 14 3 63 12 110 20 536 96 1052 251
1620 489 341 143 640 293 942 472 9 6 42 25 73 43 117 68 445 291 545 369 209
164 302 240 405 332 56 51 385 380 415 416 14 17 55 65 93 109 61 70 240 297
277 352 315 457 494 791 656 1226 75 202 161 485 190 628 3 14 16 78 30 144
13 65 29 150 34 190 6 39 13 83 15 97 7 37 13 87 20 160 3 35 8 80 10 99 23
185 23 783 1 907 -2 10 -7 49 -11 87 -4 38 -9 79 -11 90 -2 12 -8 50 -13 86
-6 36 -12 76 -15 90 -3 14 -11 52 -17 85 -20 113 -91 379 -144 534 -140 417
-346 834 -587 1189 -54 79 -200 285 -208 292 -3 3 -32 39 -65 80 -179 224
-416 479 -596 641 -15 13 -44 40 -65 59 -22 19 -80 69 -129 110 -50 41 -95 80
-102 85 -6 6 -24 20 -40 32 -112 85 -149 113 -158 121 -5 4 -41 30 -80 57
-637 446 -1313 744 -2005 885 -58 12 -121 24 -140 26 -19 3 -57 9 -85 14 -27
5 -77 12 -110 16 -33 4 -68 8 -78 10 -141 25 -760 25 -919 -1 -13 -2 -45 -6
-73 -10 -49 -6 -250 -40 -290 -49 -11 -2 -40 -9 -65 -15 -25 -7 -55 -14 -67
-16 -49 -11 -263 -76 -343 -105 -47 -16 -88 -30 -92 -30 -4 0 17 34 47 75 85
118 198 361 219 468 2 12 9 42 15 67 32 143 36 513 8 702 -4 27 -17 34 -17 10
0 -29 -68 -157 -126 -239 -47 -65 -214 -276 -269 -338 -15 -16 -52 -59 -83
-95 -76 -86 -147 -165 -197 -220 -23 -25 -58 -63 -78 -85 l-36 -40 4 90 c25
622 25 1715 0 2155 -14 256 -27 308 -89 354 -44 34 -151 51 -215 34z"/>
</g>
</svg>
